<?xml version="1.0" encoding="utf-8"?>
<!DOCTYPE svg PUBLIC "-//W3C//DTD SVG 1.1//EN" "http://www.w3.org/Graphics/SVG/1.1/DTD/svg11.dtd">
<svg version="1.1" id="Layer_1" xmlns="http://www.w3.org/2000/svg" xmlns:xlink="http://www.w3.org/1999/xlink" x="0px" y="0px" width="334.749px" height="217.699px" viewBox="0 0 334.749 217.699" enable-background="new 0 0 334.749 217.699" xml:space="preserve">
<g>
	<rect x="0.5" y="27.533" fill="#F7B1C8" stroke="#000000" stroke-miterlimit="10" width="333.5" height="60"/>
	<text transform="matrix(1 0 0 1 92.499 41.6992)"><tspan x="0" y="0" font-family="LucidaBright" font-style="Regular" font-size="12">Epithelium</tspan><tspan x="0" y="20" font-family="LucidaBright" font-style="Regular" font-size="12">Lamina Propria</tspan><tspan x="0" y="40" font-family="LucidaBright" font-style="Regular" font-size="12">Muscularis Mucosa</tspan></text>
	<text transform="matrix(1 0 0 1 8.668 61.6426)" font-family="LucidaBright" font-style="Regular" font-size="12">Mucosa</text>
	<g>
		<path d="M71.711,55.515c2.869,0,3.279-2.915,3.32-5.53c0-2.093-0.164-4.186-0.328-6.203c-0.164-2.167-0.327-4.26-0.327-6.278c0-6.875,2.501-9.791,5.985-9.791h0.82v4.111h-0.697c-2.419,0.075-3.28,2.392-3.28,6.427c0,1.719,0.164,3.513,0.287,5.306c0.164,1.869,0.328,3.662,0.328,5.68c0.041,4.783-1.147,7.175-2.993,8.072v0.149c1.846,0.897,2.993,3.363,2.993,8.146c0,2.018-0.164,3.886-0.328,5.755c-0.123,1.793-0.287,3.587-0.287,5.381c0,4.186,0.984,6.427,3.28,6.502h0.697v4.11H80.32c-3.361,0-5.944-2.69-5.944-10.239c0-2.018,0.163-4.11,0.368-6.128c0.123-2.092,0.287-4.11,0.287-6.054c0-2.392-0.41-5.605-3.32-5.605V55.515z"/>
	</g>
</g>
<g>
	<rect x="0.5" y="90.977" fill="#B5DFCE" stroke="#000000" stroke-miterlimit="10" width="333.5" height="29.668"/>
	<text transform="matrix(1 0 0 1 8.668 109.9204)" font-family="LucidaBright" font-style="Regular" font-size="12">Submucosa</text>
	<rect x="164.249" y="97.811" fill="#C2D3ED" stroke="#000000" stroke-miterlimit="10" width="170" height="16"/>
	<text transform="matrix(1.0043 0 0 1 167.6143 109.333)" font-family="LucidaBright" font-style="Regular" font-size="10">Meissner’s (Submucosal) Plexus</text>
</g>
<g>
	<rect x="0.5" y="187.533" fill="#F8A68D" stroke="#000000" stroke-miterlimit="10" width="333.5" height="29.666"/>
	<text transform="matrix(1 0 0 1 8.668 206.4746)" font-family="LucidaBright" font-style="Regular" font-size="12">Serosa or Adventitia</text>
</g>
<g>
	<rect x="0.5" y="124.089" fill="#C2BEDF" stroke="#000000" stroke-miterlimit="10" width="333.5" height="60"/>
	<text transform="matrix(1 0 0 1 145.166 138.9902)" font-family="LucidaBright" font-style="Regular" font-size="12">Circular Muscle</text>
	<text transform="matrix(1 0 0 1 145.166 176.4063)" font-family="LucidaBright" font-style="Regular" font-size="12">Longitudinal Muscle</text>
	<rect x="172.249" y="144.715" fill="#FBF4A1" stroke="#000000" stroke-miterlimit="10" width="162" height="16"/>
	<text transform="matrix(1 0 0 1 175.6885 156.2368)" font-family="LucidaBright" font-style="Regular" font-size="10">Auerbach’s (Myenteric) Plexus</text>
	<text transform="matrix(1 0 0 1 8.668 158.2134)" font-family="LucidaBright" font-style="Regular" font-size="12">Muscularis Propria</text>
	<g>
		<path d="M127.446,152.072c2.869,0,3.279-2.915,3.32-5.531c0-2.092-0.164-4.186-0.328-6.203c-0.164-2.167-0.327-4.26-0.327-6.278c0-6.875,2.501-9.791,5.985-9.791h0.82v4.111h-0.697c-2.419,0.075-3.28,2.392-3.28,6.427c0,1.719,0.164,3.513,0.287,5.306c0.164,1.869,0.328,3.662,0.328,5.681c0.041,4.783-1.147,7.175-2.993,8.071v0.15c1.846,0.896,2.993,3.363,2.993,8.146c0,2.018-0.164,3.886-0.328,5.754c-0.123,1.793-0.287,3.587-0.287,5.38c0,4.186,0.984,6.428,3.28,6.503h0.697v4.11h-0.861c-3.361,0-5.944-2.69-5.944-10.239c0-2.018,0.163-4.11,0.368-6.127c0.123-2.093,0.287-4.111,0.287-6.055c0-2.391-0.41-5.604-3.32-5.604V152.072z"/>
	</g>
</g>
<text transform="matrix(1 0 0 1 8.2939 11.1992)" font-family="LucidaBright" font-style="Regular" font-size="13">General Organization of the Gastrointestinal Tract</text>
</svg>
